#!OML:ASF C:\Vicon Data\Big\jianyuan-13\jianyuan\Session 1\Capture.male.ASF
:FULLY-SPECIFIED
:DEGREES
251
root -7.465832 17.274209 1.666537 4.438190 15.018372 3.095427
lowerback -11.446486 -4.950702 -5.641448 
upperback 1.665152 -5.807798 0.144019 
thorax 8.797029 -3.089676 2.193504 
lowerneck -5.858376 -1.438591 3.085663 
upperneck -2.077376 -2.106730 -3.133616 
head 0.271609 -1.097865 -1.531888 
rclavicle 0.000000 0.000000 
rhumerus -56.021748 -19.321792 -73.755630 
rradius 27.935905 
rwrist 31.481330 
rhand -17.060448 -15.979276 
rfingers 0.000000 
rthumb 9.177020 -45.759596 
lclavicle 0.000000 0.000000 
lhumerus -8.205495 -8.189078 97.049816 
lradius 60.034393 
lwrist -18.312603 
lhand -18.021543 2.558891 
lfingers 0.000000 
lthumb 8.249580 32.377861 
rfemur -43.135595 -0.768141 8.371093 
rtibia 26.533523 
rfoot -7.321493 -12.334075 
rtoes -30.954124 
lfemur 9.317160 -5.916546 -23.025333 
ltibia 21.903706 
lfoot -12.851322 -5.565921 
ltoes -41.218529 
252
root -7.482746 17.248313 1.810401 4.822533 15.170203 3.187577
lowerback -11.619271 -4.900267 -5.681815 
upperback 1.542702 -5.722919 0.119036 
thorax 8.756432 -3.045985 2.199679 
lowerneck -5.918752 -1.544312 3.137153 
upperneck -2.235039 -2.254983 -3.186268 
head 0.226799 -1.173134 -1.559691 
rclavicle 0.000000 0.000000 
rhumerus -56.067623 -19.480617 -73.766906 
rradius 28.209952 
rwrist 31.132567 
rhand -17.025493 -16.237116 
rfingers 0.000000 
rthumb 9.210705 -46.015950 
lclavicle 0.000000 0.000000 
lhumerus -8.589226 -8.415244 97.185177 
lradius 59.773984 
lwrist -18.478591 
lhand -18.112632 2.702765 
lfingers 0.000000 
lthumb 8.161613 32.525169 
rfemur -42.538416 -0.578681 8.448397 
rtibia 26.341934 
rfoot -7.690666 -12.989220 
rtoes -30.772939 
lfemur 9.369715 -5.891478 -22.848153 
ltibia 21.954742 
lfoot -12.627925 -5.767865 
ltoes -41.092781 
253
root -7.498096 17.222681 1.956308 5.252041 15.352555 3.328633
lowerback -11.889446 -4.855400 -5.659718 
upperback 1.465638 -5.641308 0.026750 
thorax 8.807600 -3.000539 2.089290 
lowerneck -6.029154 -1.652454 3.073610 
upperneck -2.426799 -2.400631 -3.057414 
head 0.182476 -1.245261 -1.509474 
rclavicle 0.000000 0.000000 
rhumerus -56.044294 -19.671735 -73.868767 
rradius 28.424751 
rwrist 31.014784 
rhand -17.257452 -16.558213 
rfingers 0.000000 
rthumb 8.986877 -46.346796 
lclavicle 0.000000 0.000000 
lhumerus -8.895352 -8.644008 97.206068 
lradius 59.440657 
lwrist -18.507346 
lhand -18.135972 2.719776 
lfingers 0.000000 
lthumb 8.139083 32.543061 
rfemur -41.992632 -0.823196 8.682663 
rtibia 26.175744 
rfoot -7.920450 -13.105396 
rtoes -30.586281 
lfemur 9.341566 -6.000546 -22.751844 
ltibia 22.086821 
lfoot -12.401797 -5.844705 
ltoes -41.447056 
254
root -7.514557 17.196946 2.106467 5.741041 15.416495 3.487501
lowerback -12.138892 -4.801451 -5.746031 
upperback 1.309628 -5.543298 0.039138 
thorax 8.781741 -2.953085 2.159761 
lowerneck -6.105157 -1.729685 2.936511 
upperneck -2.591093 -2.499514 -3.081439 
head 0.142018 -1.294284 -1.494352 
rclavicle 0.000000 0.000000 
rhumerus -56.050980 -19.676633 -73.870695 
rradius 28.625201 
rwrist 30.508444 
rhand -17.585752 -16.758248 
rfingers 0.000000 
rthumb 8.670069 -46.560148 
lclavicle 0.000000 0.000000 
lhumerus -9.314963 -8.660951 97.411062 
lradius 59.140471 
lwrist -18.609959 
lhand -18.103339 2.682103 
lfingers 0.000000 
lthumb 8.170606 32.504084 
rfemur -41.541164 -0.785124 8.818023 
rtibia 26.071999 
rfoot -8.163823 -13.604657 
rtoes -30.313697 
lfemur 9.300873 -6.058121 -22.679154 
ltibia 22.177992 
lfoot -12.214418 -5.848031 
ltoes -41.711167 
255
root -7.533020 17.174922 2.260636 6.120821 15.428303 3.637270
lowerback -12.334115 -4.740385 -5.794847 
upperback 1.220658 -5.440775 0.018537 
thorax 8.789822 -2.902732 2.176563 
lowerneck -6.173892 -1.807433 2.820364 
upperneck -2.810477 -2.600730 -3.039091 
head 0.083758 -1.343930 -1.461170 
rclavicle 0.000000 0.000000 
rhumerus -55.976184 -19.692833 -73.889425 
rradius 28.742388 
rwrist 30.591650 
rhand -17.574955 -17.003918 
rfingers 0.000000 
rthumb 8.680555 -46.805428 
lclavicle 0.000000 0.000000 
lhumerus -9.725191 -8.570849 97.555993 
lradius 58.804873 
lwrist -18.886612 
lhand -18.057131 2.621775 
lfingers 0.000000 
lthumb 8.215186 32.442066 
rfemur -41.013917 -0.767820 8.990923 
rtibia 26.040919 
rfoot -8.438588 -13.960967 
rtoes -30.163477 
lfemur 9.444227 -5.981249 -22.577093 
ltibia 22.184234 
lfoot -11.874402 -5.844309 
ltoes -42.268169 
256
root -7.549857 17.149124 2.419642 6.574202 15.384701 3.834181
lowerback -12.597041 -4.626799 -5.812425 
upperback 1.130176 -5.261534 -0.078120 
thorax 8.816950 -2.811633 2.107320 
lowerneck -6.284867 -1.878418 2.877023 
upperneck -3.032248 -2.705144 -3.060648 
head 0.029120 -1.397348 -1.479142 
rclavicle 0.000000 0.000000 
rhumerus -55.937578 -19.958805 -73.886163 
rradius 28.817588 
rwrist 30.314789 
rhand -17.942015 -17.096127 
rfingers 0.000000 
rthumb 8.326306 -46.912020 
lclavicle 0.000000 0.000000 
lhumerus -10.134955 -8.572064 97.620902 
lradius 58.409933 
lwrist -19.259681 
lhand -18.024085 2.476352 
lfingers 0.000000 
lthumb 8.247072 32.295415 
rfemur -40.520383 -0.596276 9.044177 
rtibia 26.010754 
rfoot -8.769931 -14.371825 
rtoes -29.813946 
lfemur 9.528217 -5.975934 -22.578985 
ltibia 22.224767 
lfoot -11.582549 -5.725123 
ltoes -42.520283 
257
root -7.568377 17.125787 2.581219 6.973452 15.365149 3.970981
lowerback -12.779396 -4.572905 -5.794127 
upperback 1.029351 -5.179233 -0.106737 
thorax 8.798971 -2.767170 2.076461 
lowerneck -6.412350 -1.891993 2.820615 
upperneck -3.239560 -2.726176 -3.089843 
head -0.014456 -1.408182 -1.478912 
rclavicle 0.000000 0.000000 
rhumerus -55.786203 -19.916010 -73.972952 
rradius 28.899475 
rwrist 30.044025 
rhand -17.790045 -17.255559 
rfingers 0.000000 
rthumb 8.472920 -47.065582 
lclavicle 0.000000 0.000000 
lhumerus -10.645946 -8.396249 97.679944 
lradius 58.054669 
lwrist -19.587079 
lhand -18.086822 2.460873 
lfingers 0.000000 
lthumb 8.186550 32.282283 
rfemur -39.978532 -0.826740 9.382608 
rtibia 25.948750 
rfoot -8.952936 -14.640527 
rtoes -29.838774 
lfemur 9.627694 -5.953442 -22.494202 
ltibia 22.301595 
lfoot -11.212744 -5.546925 
ltoes -43.785135 
258
root -7.587679 17.105156 2.746434 7.302110 15.281248 4.080279
lowerback -12.981886 -4.494086 -5.769436 
upperback 0.992873 -5.061799 -0.138938 
thorax 8.858820 -2.707829 2.041718 
lowerneck -6.502173 -1.920984 2.837652 
upperneck -3.537058 -2.773865 -3.163241 
head -0.094630 -1.432873 -1.504752 
rclavicle 0.000000 0.000000 
rhumerus -55.614726 -20.010102 -74.015280 
rradius 28.951518 
rwrist 29.861864 
rhand -17.912095 -17.152361 
rfingers 0.000000 
rthumb 8.355150 -46.967083 
lclavicle 0.000000 0.000000 
lhumerus -11.143502 -8.158311 97.750186 
lradius 57.658178 
lwrist -19.918988 
lhand -18.104867 2.301673 
lfingers 0.000000 
lthumb 8.169131 32.123777 
rfemur -39.337076 -0.609204 9.538301 
rtibia 25.859037 
rfoot -9.558555 -15.037635 
rtoes -29.268319 
lfemur 9.780266 -5.894806 -22.396105 
ltibia 22.430670 
lfoot -10.765136 -5.406972 
ltoes -44.295116 
259
root -7.606634 17.083456 2.917025 7.610597 15.217318 4.220404
lowerback -13.154014 -4.426226 -5.763230 
upperback 0.946845 -4.957815 -0.177288 
thorax 8.893412 -2.655227 2.010596 
lowerneck -6.627748 -1.919313 2.834638 
upperneck -3.750215 -2.778095 -3.176025 
head -0.140371 -1.435636 -1.508384 
rclavicle 0.000000 0.000000 
rhumerus -55.364040 -20.141874 -73.970357 
rradius 28.889773 
rwrist 29.909166 
rhand -17.699271 -17.259243 
rfingers 0.000000 
rthumb 8.560546 -47.065700 
lclavicle 0.000000 0.000000 
lhumerus -11.708318 -7.839098 97.804480 
lradius 57.245572 
lwrist -20.237376 
lhand -18.163108 2.194273 
lfingers 0.000000 
lthumb 8.112908 32.018541 
rfemur -38.608510 -0.663793 9.829225 
rtibia 25.755970 
rfoot -9.974735 -15.296985 
rtoes -29.819080 
lfemur 9.941311 -5.811074 -22.324084 
ltibia 22.624587 
lfoot -10.258702 -5.218379 
ltoes -45.350429 
260
root -7.627305 17.062369 3.089593 7.954742 15.183250 4.353816
lowerback -13.331419 -4.391965 -5.773776 
upperback 0.863471 -4.897087 -0.206663 
thorax 8.896309 -2.623255 1.990363 
lowerneck -6.722401 -1.955154 3.040720 
upperneck -3.922658 -2.848229 -3.429113 
head -0.186690 -1.474801 -1.626762 
rclavicle 0.000000 0.000000 
rhumerus -55.158755 -20.274149 -73.898578 
rradius 28.785250 
rwrist 29.917955 
rhand -17.657099 -17.187463 
rfingers 0.000000 
rthumb 8.601240 -46.992234 
lclavicle 0.000000 0.000000 
lhumerus -12.407720 -7.567961 97.787439 
lradius 56.832533 
lwrist -20.501480 
lhand -18.366465 2.221754 
lfingers 0.000000 
lthumb 7.916640 32.053493 
rfemur -37.939107 -0.653061 10.064326 
rtibia 25.683367 
rfoot -10.809149 -15.436748 
rtoes -30.530730 
lfemur 9.986983 -5.730198 -22.205650 
ltibia 22.895817 
lfoot -9.658345 -5.050910 
ltoes -45.934994 
261
root -7.648152 17.050443 3.265611 8.371294 15.240213 4.517828
lowerback -13.572505 -4.395785 -5.807311 
upperback 0.772583 -4.877721 -0.247748 
thorax 8.931985 -2.611946 1.957113 
lowerneck -6.838484 -1.888821 2.956228 
upperneck -4.091007 -2.757378 -3.262241 
head -0.213463 -1.428235 -1.557108 
rclavicle 0.000000 0.000000 
rhumerus -54.871500 -20.377585 -73.883867 
rradius 28.657591 
rwrist 30.123297 
rhand -17.354832 -17.227579 
rfingers 0.000000 
rthumb 8.892917 -47.020197 
lclavicle 0.000000 0.000000 
lhumerus -13.167637 -7.183417 97.761344 
lradius 56.416850 
lwrist -20.757220 
lhand -18.463093 2.127887 
lfingers 0.000000 
lthumb 7.823371 31.963148 
rfemur -37.468350 -0.470598 10.119440 
rtibia 25.748725 
rfoot -10.815707 -16.147083 
rtoes -30.235684 
lfemur 10.063247 -5.662654 -22.069851 
ltibia 22.917719 
lfoot -8.796317 -4.793056 
ltoes -46.826970 
